<svg xmlns="http://www.w3.org/2000/svg" width="107.292" height="47.16" viewBox="0 0 107.292 47.16">
  <g id="new_city_HB-01_332px-01" data-name="new_city HB-01 332px-01" transform="translate(-4.941 -7.959)">
    <path id="Caminho_513" data-name="Caminho 513" d="M16.729,68.73c-.86,0-2.037,0-2.717-.033-3.161-.1-5.558-1.1-7.125-2.974a9.224,9.224,0,0,1-1.944-6A8,8,0,0,1,6.881,54.28c1.547-1.714,3.9-2.667,7-2.827.217,0,1.087-.033,1.334-.033H32.089c.577,0,.667.113.7.513a8.669,8.669,0,0,1,0,.883c-.02.423-.18.493-.667.493H19.45c-.49,0-1.947.057-2.474.127-3.861.51-5.738,2.56-5.738,6.291,0,4.071,1.88,6.271,5.741,6.728.667.077,1.86.14,2.634.14H33.452c.5,0,.667.07.667.493V68.2c-.023.4-.117.517-.7.517H16.729Z" transform="translate(0 -28.972)" fill="#231f20" fill-rule="evenodd"/>
    <path id="Caminho_514" data-name="Caminho 514" d="M105.749,68.533c.957.02,1.884.037,2.877,0,.63-.023,1.12,0,1.287-.47a2.094,2.094,0,0,0,.083-.69v-15.4a1.033,1.033,0,0,0-.193-.667.83.83,0,0,0-.643-.243A12.394,12.394,0,0,0,107.626,51h-1.377a3.758,3.758,0,0,0-1.4.147c-.4.23-.363.7-.367,1.25V67.6a.887.887,0,0,0,.333.78A2.037,2.037,0,0,0,105.749,68.533Z" transform="translate(-66.352 -28.692)" fill="#231f20"/>
    <path id="Caminho_515" data-name="Caminho 515" d="M142.514,54.2c.583.9.54,2.334.55,3.937v8.875a2.131,2.131,0,0,0,.137,1.05.613.613,0,0,0,.3.263c.2.08.24.093,1.79.12.517,0,1.217,0,2.284-.027.48,0,.8-.047,1-.447a3.667,3.667,0,0,0,.09-1.157c-.02-2.937,0-5.878,0-8.818,0-.7,0-1.41.07-2.114a4.1,4.1,0,0,1,.333-1.457c.573-1.157,1.9-1.3,3.357-1.334,1.164-.023,2.23-.027,4.2-.027h3.141a1.493,1.493,0,0,0,.667-.117c.333-.173.363-.683.333-1.464a.723.723,0,0,0-.263-.593,1.254,1.254,0,0,0-.7-.16H133.306c-1.037,0-1.144,0-1.354.14a.523.523,0,0,0-.22.267,1.821,1.821,0,0,0-.083.667,2.547,2.547,0,0,0,.077.81c.087.26.29.433.967.43h4.524c.69,0,1.637,0,2.307.033C141.077,53.155,142.007,53.411,142.514,54.2Z" transform="translate(-84.461 -28.513)" fill="#231f20"/>
    <path id="Caminho_516" data-name="Caminho 516" d="M244.783,68.594c-.98,0-2.117-.02-2.43-.053a.62.62,0,0,1-.16-.03h-.033l-.087-.033a.527.527,0,0,1-.3-.333V68.11a.189.189,0,0,0-.023-.077,1.313,1.313,0,0,1-.023-.13,1.332,1.332,0,0,1,0-.193V63.1a1.92,1.92,0,0,0-.667-1.334c-3.191-2.634-12.265-10-12.355-10.075a.407.407,0,0,1-.14-.383c.04-.093.183-.153.4-.16s.953,0,2.064,0h3.134c1.267.02,1.267.02,1.807.443.05.04,6.754,5.641,8.861,7.361l.4.313a2.807,2.807,0,0,0,.473.28,1.71,1.71,0,0,0,.72.153,1.737,1.737,0,0,0,.667-.133,3.411,3.411,0,0,0,.88-.577c1.15-.943,4.047-3.364,8.608-7.185l.4-.333a1,1,0,0,1,.893-.3h3c.333,0,.4.09.4.09a.748.748,0,0,1-.26.333c-.113.1-11.749,9.9-12.245,10.375a2.037,2.037,0,0,0-.58,1.314v4.411a1.459,1.459,0,0,1,0,.177.915.915,0,0,1-.023.143l-.02.063v.047a.537.537,0,0,1-.3.333.669.669,0,0,1-.093.037h-.03a.667.667,0,0,1-.16.03C247.164,68.577,245.71,68.594,244.783,68.594Z" transform="translate(-149.068 -28.786)" fill="#231f20" fill-rule="evenodd"/>
    <path id="Caminho_517" data-name="Caminho 517" d="M15.109,126.433c-.153,0-.53-.023-.833-.023a6.339,6.339,0,0,0-.777.023.5.5,0,0,0-.46.557v1.924a.447.447,0,0,1-.44.453H8.038a.447.447,0,0,1-.44-.453V126.99a.493.493,0,0,0-.46-.557c-.137,0-.413-.023-.783-.023-.3,0-.667,0-.83.023a.5.5,0,0,0-.463.557v6.334a.493.493,0,0,0,.46.56c.123,0,.43.02.813.02a7.814,7.814,0,0,0,.8-.02.493.493,0,0,0,.46-.56v-2.287a.447.447,0,0,1,.44-.43H12.6a.447.447,0,0,1,.443.443v2.287a.493.493,0,0,0,.463.56c.13,0,.387.02.757.02s.733,0,.853-.02a.493.493,0,0,0,.463-.56V127a.493.493,0,0,0-.467-.57Z" transform="translate(-0.077 -78.961)" fill="#231f20" fill-rule="evenodd"/>
    <path id="Caminho_518" data-name="Caminho 518" d="M53.358,133.278c-.02-.027-3.461-4.734-4.334-5.964-.09-.127-.173-.23-.207-.27a1.407,1.407,0,0,0-1.127-.593H45.6a1.277,1.277,0,0,0-.963.477c-.137.167-.27.333-.3.383l-4.521,6.034a.437.437,0,0,0-.11.413c.053.127.193.2.43.21H40.8a.573.573,0,0,0,.563-.31l.74-1a3.609,3.609,0,0,1,.28-.333,1.244,1.244,0,0,1,.377-.273,1.513,1.513,0,0,1,.487-.09h5.734c.193,0,.247.027.45.29s.857,1.147,1,1.334c.283.333.413.387,1,.4h1.547a.483.483,0,0,0,.44-.257.463.463,0,0,0-.06-.45Zm-7.741-5.268a.667.667,0,0,1,.4-.12.593.593,0,0,1,.383.13.957.957,0,0,1,.14.143c.46.607,1.06,1.41,1.644,2.27a1.477,1.477,0,0,1,.13.217c.04.09.023.1,0,.11s-.047.033-.233.033H43.816c-.19,0-.23-.03-.24-.04s0-.027.03-.1a1.814,1.814,0,0,1,.153-.237h0c.733-1,1.244-1.684,1.52-2.047A1.567,1.567,0,0,1,45.617,128.01Z" transform="translate(-23.163 -78.988)" fill="#231f20" fill-rule="evenodd"/>
    <path id="Caminho_519" data-name="Caminho 519" d="M86.217,126.764c-.037-.367-.217-.44-.51-.44H75.282a.453.453,0,0,0-.507.433,3.384,3.384,0,0,0,0,.45c.04.37.2.44.51.44h2.774a2.494,2.494,0,0,1,.7.073.667.667,0,0,1,.45.58,3.222,3.222,0,0,1,.02.363V133.3a.5.5,0,0,0,.457.577c.137,0,.413.023.78.023h.047a6.4,6.4,0,0,0,.78-.023.5.5,0,0,0,.46-.563v-4.654a2.517,2.517,0,0,1,.02-.36.667.667,0,0,1,.45-.583,2.244,2.244,0,0,1,.7-.073H85.7c.31,0,.473-.07.51-.443A3.873,3.873,0,0,0,86.217,126.764Z" transform="translate(-46.547 -78.901)" fill="#231f20" fill-rule="evenodd"/>
    <path id="Caminho_520" data-name="Caminho 520" d="M120.593,133.151c-.02-.42-.357-.42-.5-.42h-5.164c-.293,0-.757-.023-1-.053a2.142,2.142,0,0,1-2.06-2.477,2.078,2.078,0,0,1,2.06-2.3c.2-.027.763-.05.947-.05h4.7c.143,0,.48,0,.5-.42v-.38c-.023-.377-.27-.427-.51-.427h-6.581a4.02,4.02,0,0,0-2.924,1.22,3.467,3.467,0,0,0-.823,2.334,4,4,0,0,0,.82,2.574,3.857,3.857,0,0,0,3,1.284H120.1c.24,0,.487-.05.51-.427C120.6,133.514,120.6,133.264,120.593,133.151Z" transform="translate(-69.522 -79.101)" fill="#231f20" fill-rule="evenodd"/>
    <path id="Caminho_521" data-name="Caminho 521" d="M156.782,126.433c-.157,0-.533-.023-.837-.023a6.369,6.369,0,0,0-.777.023.5.5,0,0,0-.463.557v1.924a.447.447,0,0,1-.437.453h-4.551a.447.447,0,0,1-.437-.453V126.99a.493.493,0,0,0-.463-.557c-.137,0-.413-.023-.783-.023-.3,0-.667,0-.83.023a.5.5,0,0,0-.463.557v6.334a.493.493,0,0,0,.46.56c.127,0,.43.02.817.02a7.66,7.66,0,0,0,.8-.02.493.493,0,0,0,.463-.56v-2.287a.447.447,0,0,1,.437-.453h4.551a.447.447,0,0,1,.437.453v2.287a.493.493,0,0,0,.463.56c.133,0,.387.02.757.02s.733,0,.857-.02a.493.493,0,0,0,.46-.56V126.99a.493.493,0,0,0-.46-.557Z" transform="translate(-94.522 -78.961)" fill="#231f20" fill-rule="evenodd"/>
    <path id="Caminho_522" data-name="Caminho 522" d="M193.225,129.889a2.1,2.1,0,0,0,.46-1.387,1.931,1.931,0,0,0-2-1.977H184.47a6.148,6.148,0,0,0-.7.02.69.69,0,0,0-.667.69V133.4a.493.493,0,0,0,.457.563c.127,0,.43.02.79.02h7.521a2.137,2.137,0,0,0,2.234-2.194A2.2,2.2,0,0,0,193.225,129.889Zm-2.537-.437c-.09,0-.257.02-.357.02h-4.357a.444.444,0,0,1-.17-.033.3.3,0,0,1-.16-.2.907.907,0,0,1-.017-.243V128.1c0-.273.073-.333.29-.333h4.307a2.86,2.86,0,0,1,.437.017.72.72,0,0,1,.667.817C191.351,129.1,191.128,129.4,190.688,129.452Zm.157,3.167c-.07,0-.28.017-.36.017h-4.591c-.213-.023-.247-.093-.26-.333v-1.174a1.161,1.161,0,0,1,.02-.23.253.253,0,0,1,.157-.187.837.837,0,0,1,.333-.047h4.317a3.611,3.611,0,0,1,.4.023c.53.063.763.353.763.937A.91.91,0,0,1,190.844,132.619Z" transform="translate(-118.759 -79.036)" fill="#231f20" fill-rule="evenodd"/>
    <path id="Caminho_523" data-name="Caminho 523" d="M306,132.971c-.133-.08-4.521-2.354-5.4-2.81a.117.117,0,0,1-.073-.107.233.233,0,0,1,.14-.2l5.081-2.79a.47.47,0,0,0,.3-.493c-.033-.15-.167-.333-.61-.35h-.74a1.087,1.087,0,0,0-.56.16l-.21.1-5.047,2.614a.374.374,0,0,1-.13.033h-.03a.265.265,0,0,1,0-.087V127c0-.493-.2-.73-.64-.767-.183,0-.377-.023-.627-.023a5.7,5.7,0,0,0-.667.023.667.667,0,0,0-.63.767v6.131a.667.667,0,0,0,.64.767c.19,0,.59.02.713.02a4.946,4.946,0,0,0,.56-.017h.033c.407-.023.627-.28.647-.767V131.4c0-.227,0-.257.077-.293a.16.16,0,0,1,.08-.02.384.384,0,0,1,.163.047l4.751,2.474a2.071,2.071,0,0,0,.937.333h1.06a.51.51,0,0,0,.527-.333.563.563,0,0,0-.343-.637Z" transform="translate(-194.121 -78.825)" fill="#231f20" fill-rule="evenodd"/>
    <path id="Caminho_524" data-name="Caminho 524" d="M230.9,133.278c-.02-.027-3.467-4.744-4.334-5.964a2.746,2.746,0,0,0-.21-.267,1.4,1.4,0,0,0-1.127-.6h-2.087a1.277,1.277,0,0,0-.964.477c-.147.173-.287.36-.3.383l-4.521,6.034a.443.443,0,0,0-.113.41c.053.13.193.2.433.213h.667a.583.583,0,0,0,.567-.313l.74-1a2.793,2.793,0,0,1,.277-.333,1.244,1.244,0,0,1,.377-.273,1.514,1.514,0,0,1,.487-.09h5.734c.193,0,.247.027.447.29s.86,1.147,1,1.334c.28.333.41.387,1,.4h1.547a.49.49,0,0,0,.443-.257A.463.463,0,0,0,230.9,133.278Zm-7.745-5.268a.667.667,0,0,1,.4-.12.577.577,0,0,1,.383.13.955.955,0,0,1,.14.143c.46.607,1.06,1.41,1.644,2.27a1.577,1.577,0,0,1,.13.217c.04.09.023.1,0,.11s-.047.033-.233.033h-4.264c-.187,0-.227-.03-.237-.04s0-.027.027-.1a2.233,2.233,0,0,1,.157-.24.071.071,0,0,0,0-.02c.733-1,1.244-1.667,1.52-2.044a1.49,1.49,0,0,1,.333-.343Z" transform="translate(-141.511 -78.988)" fill="#231f20" fill-rule="evenodd"/>
    <path id="Caminho_525" data-name="Caminho 525" d="M269.95,133.151a.42.42,0,0,0-.5-.42h-5.164c-.293,0-.757-.023-1-.053a2.146,2.146,0,0,1-2.06-2.477,2.079,2.079,0,0,1,2.064-2.3c.2-.027.76-.05.943-.05h4.7c.143,0,.477,0,.5-.42a3.6,3.6,0,0,0,0-.38c-.02-.377-.267-.427-.507-.427h-6.588a4.02,4.02,0,0,0-2.924,1.22,3.477,3.477,0,0,0-.82,2.334,3.964,3.964,0,0,0,.82,2.564,3.845,3.845,0,0,0,2.984,1.284h7.044c.237,0,.483-.05.507-.427C269.957,133.508,269.957,133.258,269.95,133.151Z" transform="translate(-169.087 -79.101)" fill="#231f20" fill-rule="evenodd"/>
    <path id="Caminho_526" data-name="Caminho 526" d="M64.08,25.72H62.687a3.785,3.785,0,0,0-.55.02c-.13.02-.433.04-.517.2v.69c.057.123.227.2.513.213h1.89c.353-.02.543-.123.543-.307v-.62C64.567,25.813,64.387,25.72,64.08,25.72Z" transform="translate(-37.783 -11.84)" fill="#231f20" fill-rule="evenodd"/>
    <path id="Caminho_527" data-name="Caminho 527" d="M80.44,25.72H79.047a3.811,3.811,0,0,0-.55.02c-.13.02-.43.04-.517.2v.69c.057.123.23.2.517.213h1.89c.353-.02.54-.123.54-.307v-.62C80.927,25.813,80.75,25.72,80.44,25.72Z" transform="translate(-48.689 -11.84)" fill="#231f20" fill-rule="evenodd"/>
    <path id="Caminho_528" data-name="Caminho 528" d="M12.675,8.173c-.107,0-.367-.02-.577-.02a4.667,4.667,0,0,0-.533.02c-.083,0-.257.073-.307.36v4.384L8.3,8.967c-.03-.043-.157-.207-.287-.363a1.207,1.207,0,0,0-.917-.453H5.99a4.117,4.117,0,0,0-.437.03.457.457,0,0,0-.413.353v6.351a.43.43,0,0,0,.41.37c.123,0,.36.02.707.02s.667,0,.8-.02a.463.463,0,0,0,.433-.53V10.1c.277.37.727.973,1.334,1.81v.017l1.564,2.124.71.943a.547.547,0,0,0,.537.293h.7a3,3,0,0,0,.333-.017c.21-.03.333-.213.333-.53V8.7C12.995,8.393,12.881,8.2,12.675,8.173Z" transform="translate(-0.133 -0.128)" fill="#231f20" fill-rule="evenodd"/>
    <path id="Caminho_529" data-name="Caminho 529" d="M39.69,13.776H35.256c-.2-.023-.237-.087-.247-.333V12.329a1,1,0,0,1,.02-.217.24.24,0,0,1,.147-.177.753.753,0,0,1,.307-.047H39.35a.387.387,0,0,0,.453-.373c0-.093,0-.24,0-.333-.02-.333-.247-.39-.467-.39H35.33a.377.377,0,0,1-.16-.033.29.29,0,0,1-.157-.193,1.177,1.177,0,0,1,0-.227v-.85c0-.26.07-.333.277-.333h4.267a.4.4,0,0,0,.473-.4V8.4c-.037-.37-.27-.4-.5-.4H34.506a5.581,5.581,0,0,0-.667.02.667.667,0,0,0-.63.667v5.8a.463.463,0,0,0,.433.533c.12,0,.407.02.75.02H39.68c.227,0,.46-.047.483-.4v-.45A.4.4,0,0,0,39.69,13.776Z" transform="translate(-18.84 -0.023)" fill="#231f20" fill-rule="evenodd"/>
    <path id="Caminho_530" data-name="Caminho 530" d="M68.179,8.481h0a.64.64,0,0,0-.21-.253.847.847,0,0,0-.3-.14,1.667,1.667,0,0,0-.48-.037,1.134,1.134,0,0,0-.213.03.76.76,0,0,0-.213.09.45.45,0,0,0-.19.257L65.015,13.7a.223.223,0,0,1-.053.023h-.023l-1.507-4.7c-.037-.17-.067.407-.19.287a1.4,1.4,0,0,0-.367-.26c-.133-.063.13-.113-.017-.147a2.731,2.731,0,0,0-.377-.067h-.367a.5.5,0,0,0-.107,0c-.127,0,.147.027,0,.057a1.957,1.957,0,0,0-.42.147,1.477,1.477,0,0,0-.37.26c-.12.12-.163-.413-.2-.26l-1.5,4.661h0a.167.167,0,0,1-.057,0L57.89,8.438a.44.44,0,0,0-.183-.26.613.613,0,0,0-.227-.1,1.1,1.1,0,0,0-.213-.03,1.667,1.667,0,0,0-.487.037.913.913,0,0,0-.293.137.667.667,0,0,0-.22.257.583.583,0,0,0-.027.38l1.537,5.228a2.217,2.217,0,0,0,.307.847c.143.13.333-.037.51.023a1.86,1.86,0,0,0,.48.1h.487a3.16,3.16,0,0,0,.433-.023,1.817,1.817,0,0,0,.46-.13c.153-.067.07.08.187-.047s.293,0,.333-.067l1.234-4.621h.043l1,3.911a4.044,4.044,0,0,0,.23.767c.087.15.377,0,.537.063a1.777,1.777,0,0,0,.463.123,3.16,3.16,0,0,0,.423.03h.463a1.827,1.827,0,0,0,.487-.1,1.387,1.387,0,0,0,.483-.287c.157-.14,0,.37.073.13l1.8-5.958a.563.563,0,0,0-.03-.37ZM62.148,10.1v-.043h0l.037.047Z" transform="translate(-34.183 -0.059)" fill="#231f20"/>
    <path id="Caminho_531" data-name="Caminho 531" d="M89.25,8.182c-.053-.133-.207-.207-.457-.22H88.08a.57.57,0,0,0-.54.25,4.437,4.437,0,0,1,.313.407c0,.02-.15.773-.27,1.334h1.17l.24-.86C89.214,8.422,89.314,8.339,89.25,8.182Z" transform="translate(-55.061 0)" fill="#231f20" fill-rule="evenodd"/>
    <path id="Caminho_532" data-name="Caminho 532" d="M55.743,8.2a.46.46,0,0,1,.457-.21h.713a.58.58,0,0,1,.543.25,3.86,3.86,0,0,0-.307.387c0,.02.147.773.27,1.334l-1.107.173L56.007,9.1C55.783,8.443,55.68,8.36,55.743,8.2Z" transform="translate(-33.853 -0.021)" fill="#231f20" fill-rule="evenodd"/>
    <path id="Caminho_533" data-name="Caminho 533" d="M71.185,11.42H72.3c.307,0,.057,0,.2-.017s.47-.043.563-.207v-.683c-.06-.123-.247-.2-.563-.213H71.261c-.387,0-.593.123-.593.3v.617C70.651,11.33,70.845,11.42,71.185,11.42Z" transform="translate(-43.814 -1.561)" fill="#231f20" fill-rule="evenodd"/>
    <path id="Caminho_534" data-name="Caminho 534" d="M72.74,13.987c.053-.2.13-.31.187-.31s.14.15.19.35l.243-.293-.083-.667-.3-.2-.38.1-.247.333-.083.45Z" transform="translate(-44.882 -3.274)" fill="#231f20" fill-rule="evenodd"/>
    <path id="Caminho_535" data-name="Caminho 535" d="M64.48,23.3c.05.177.077.263.2.267s.163-.133.207-.267.6.037.6.037l.067.427-.333.473-.46.1-.5-.083L64,23.871v-.407Z" transform="translate(-39.369 -10.191)" fill="#231f20" fill-rule="evenodd"/>
    <path id="Caminho_536" data-name="Caminho 536" d="M80.89,23.3c.05.177.077.263.2.267s.167-.133.207-.267.6.037.6.037l.067.427-.333.473-.46.1-.5-.083-.263-.377v-.407Z" transform="translate(-50.308 -10.191)" fill="#231f20" fill-rule="evenodd"/>
  </g>
</svg>
